<!-- icon666.com - MILLIONS vector ICONS FREE --><svg version="1.1" id="Capa_1" xmlns="http://www.w3.org/2000/svg" xmlns:xlink="http://www.w3.org/1999/xlink" x="0px" y="0px" viewBox="0 0 512 512" style="enable-background:new 0 0 512 512;" xml:space="preserve"><g><g><path d="M503.468,0.064c-0.69,0.088-69.818,9.088-144.103,30.421c-1.677,0.482-3.135,1.528-4.13,2.96l-15.372,22.145 l-5.361-10.721c-1.689-3.379-5.614-4.996-9.192-3.789c-59.337,20.001-102.716,43.436-128.935,69.655 c-25.11,25.11-47.286,54.041-65.99,86.065c-8.503-3.3-18.537-1.538-25.39,5.315c-4.481,4.481-6.949,10.44-6.949,16.777 c0,6.337,2.469,12.296,6.949,16.777l1.488,1.488c-2.65,1.17-5.091,2.827-7.201,4.937c-7.867,7.866-9.018,19.917-3.505,29.039 c-2.883,1.156-5.585,2.897-7.917,5.229c-4.482,4.481-6.949,10.44-6.949,16.777c0,6.337,2.469,12.296,6.949,16.777l1.51,1.51 c-2.62,1.15-5.08,2.773-7.222,4.915c-4.285,4.285-6.723,9.922-6.929,15.948c-5.785,0.208-11.509,2.491-15.916,6.897 c-9.251,9.251-9.251,24.303,0,33.554l0.357,0.357L2.193,430.568c-2.757,2.756-2.94,7.311-0.403,10.274 c2.832,3.307,8.031,3.514,11.111,0.434l57.47-57.47l57.827,57.827l-57.47,57.47c-2.757,2.756-2.94,7.311-0.403,10.274 c2.832,3.307,8.031,3.514,11.111,0.434l57.47-57.47l0.357,0.357c4.625,4.626,10.701,6.938,16.777,6.938s12.152-2.313,16.777-6.938 c4.407-4.407,6.689-10.131,6.897-15.916c6.026-0.206,11.663-2.644,15.948-6.929c2.141-2.141,3.765-4.602,4.915-7.221l1.51,1.51 c4.481,4.481,10.44,6.949,16.777,6.949s12.296-2.468,16.777-6.949c2.141-2.141,3.765-4.602,4.915-7.221l1.51,1.51 c4.626,4.625,10.701,6.938,16.777,6.938c6.076,0,12.152-2.313,16.777-6.938c2.11-2.11,3.767-4.549,4.937-7.2l1.488,1.488 c4.625,4.625,10.701,6.938,16.777,6.938s12.152-2.313,16.778-6.938c8.785-8.786,9.21-22.792,1.31-32.104 c31.346-18.494,59.704-40.334,84.359-64.989c34.125-34.125,63.132-96.293,86.215-184.777 C504.543,65.459,511.869,9.099,511.941,8.537c0.037-0.298,0.058-0.609,0.059-0.91C512.033,3.121,507.942-0.511,503.468,0.064z M162.109,441.99c-3.346,3.346-8.79,3.347-12.137,0l-79.958-79.958c-3.066-3.066-3.33-8.121-0.589-11.486 c3.164-3.883,9.182-4.193,12.725-0.651l79.957,79.958C165.455,433.201,165.455,438.645,162.109,441.99z M185.355,418.717 c-3.237,3.708-9.052,3.877-12.538,0.429l-79.958-79.958c-3.311-3.31-3.302-8.825,0-12.137c3.298-3.307,8.836-3.298,12.136-0.001 l39.979,39.98l39.98,39.979C188.098,410.153,188.281,415.366,185.355,418.717z M224.934,413.434 c-3.307,3.307-8.829,3.307-12.137,0l-17.129-17.129c-0.001-0.001-0.003-0.003-0.004-0.004l-39.98-39.98l-39.979-39.979 l-0.001-0.001l-17.133-17.133c-3.311-3.31-3.302-8.825,0-12.137c3.296-3.305,8.83-3.298,12.132-0.005l114.235,114.236 C228.279,404.648,228.278,410.089,224.934,413.434z M264.912,407.723c-3.346,3.345-8.791,3.345-12.137,0l-17.124-17.124 c-0.003-0.003-0.006-0.006-0.009-0.01L121.417,276.362c-0.002-0.002-0.004-0.003-0.005-0.005l-11.417-11.417 c-3.066-3.066-3.33-8.121-0.589-11.486c3.168-3.888,9.177-4.198,12.725-0.651l142.782,142.782 C268.2,398.915,268.236,404.399,264.912,407.723z M454.209,188.577c-0.386-0.061-0.777-0.101-1.18-0.101h-18.165l-9.33-18.659 c-1.87-3.741-6.418-5.258-10.159-3.386c-3.741,1.87-5.257,6.418-3.386,10.159l8.982,17.963l-23.076,23.076l-26.308,5.261 c-3.939,0.788-6.632,4.664-5.991,8.63c0.676,4.181,4.806,7.05,8.96,6.22l28.556-5.711c1.466-0.294,2.813-1.014,3.87-2.071 l26.338-26.338h15.433c-15.192,40.232-34.393,77.501-58.192,101.3c-24.611,24.611-53.082,46.32-84.639,64.569L294.134,357.7 c-2.957-2.957-7.752-2.957-10.708,0c-2.957,2.957-2.957,7.752,0,10.708l21.467,21.467c3.346,3.346,3.346,8.791,0,12.137 c-3.346,3.346-8.791,3.347-12.137,0L115.705,224.96c-3.307-3.307-3.307-8.829,0-12.137c3.346-3.345,8.791-3.345,12.137,0 l128.832,128.833c2.957,2.957,7.752,2.957,10.708,0c2.957-2.957,2.957-7.752,0-10.708l-3.541-3.541L315.6,275.65 c1.147-1.147,1.912-2.677,2.142-4.284l11.065-77.459l32.483-32.483c2.957-2.957,2.957-7.752,0-10.708 c-2.957-2.957-7.752-2.957-10.708,0L318.1,183.198l-77.459,11.065c-1.619,0.231-3.173,1.014-4.322,2.18l-51.72,51.72l-42.08-42.08 c18.249-31.557,39.949-60.02,64.568-84.639c23.651-23.651,62.94-45.129,116.834-63.88l8.11,16.221 c2.524,5.049,9.772,5.572,12.993,0.931l21.111-30.415c46.708-13.255,91.017-21.554,116.644-25.785L379.139,122.157 c-2.757,2.756-2.94,7.311-0.403,10.274c2.832,3.307,8.031,3.515,11.111,0.434L493.465,29.248 C487.937,62.56,475.496,127.438,454.209,188.577z M269.543,242.462l4.721,23.607c0.6,2.998,2.943,5.341,5.941,5.94l14.682,2.936 l-41.753,41.754l-57.827-57.827l41.754-41.753l2.936,14.682c0.6,2.998,2.943,5.341,5.94,5.941L269.543,242.462z M250.707,208.125 l62.037-8.865l-8.862,62.039l-15.757-3.151l-4.721-23.606c-0.6-2.998-2.943-5.341-5.94-5.94l-23.606-4.721L250.707,208.125z"></path></g></g></svg>